<svg height="1358" width="720" xmlns="http://www.w3.org/2000/svg">
<rect height="1358" fill="#555" width="720"></rect>
<text fill="#7f7" font-family="Courier New" font-size="12" xml:space="preserve">
<tspan x="10" y="26">5 megabytes installed</tspan>
<tspan x="10" y="42"></tspan>
<tspan x="10" y="58">node_modules</tspan>
<tspan x="10" y="74">└─┬ bittorrent-tracker@9.2.2 </tspan>
<tspan x="10" y="90">  ├── bencode@0.11.0 </tspan>
<tspan x="10" y="106">  ├── bittorrent-peerid@1.2.0 </tspan>
<tspan x="10" y="122">  ├── bn.js@4.11.6 </tspan>
<tspan x="10" y="138">  ├─┬ bufferutil@3.0.0 </tspan>
<tspan x="10" y="154">  │ ├── bindings@1.2.1 </tspan>
<tspan x="10" y="170">  │ ├── nan@2.5.1 </tspan>
<tspan x="10" y="186">  │ └─┬ prebuild-install@2.1.2 </tspan>
<tspan x="10" y="202">  │   ├── expand-template@1.0.3 </tspan>
<tspan x="10" y="218">  │   ├── github-from-package@0.0.0 </tspan>
<tspan x="10" y="234">  │   ├─┬ mkdirp@0.5.1 </tspan>
<tspan x="10" y="250">  │   │ └── minimist@0.0.8 </tspan>
<tspan x="10" y="266">  │   ├── node-abi@2.0.0 </tspan>
<tspan x="10" y="282">  │   ├── noop-logger@0.1.1 </tspan>
<tspan x="10" y="298">  │   ├─┬ npmlog@4.0.2 </tspan>
<tspan x="10" y="314">  │   │ ├─┬ are-we-there-yet@1.1.4 </tspan>
<tspan x="10" y="330">  │   │ │ └── delegates@1.0.0 </tspan>
<tspan x="10" y="346">  │   │ ├── console-control-strings@1.1.0 </tspan>
<tspan x="10" y="362">  │   │ ├─┬ gauge@2.7.4 </tspan>
<tspan x="10" y="378">  │   │ │ ├── aproba@1.1.1 </tspan>
<tspan x="10" y="394">  │   │ │ ├── has-unicode@2.0.1 </tspan>
<tspan x="10" y="410">  │   │ │ ├── object-assign@4.1.1 </tspan>
<tspan x="10" y="426">  │   │ │ ├── signal-exit@3.0.2 </tspan>
<tspan x="10" y="442">  │   │ │ ├─┬ string-width@1.0.2 </tspan>
<tspan x="10" y="458">  │   │ │ │ ├── code-point-at@1.1.0 </tspan>
<tspan x="10" y="474">  │   │ │ │ └─┬ is-fullwidth-code-point@1.0.0 </tspan>
<tspan x="10" y="490">  │   │ │ │   └── number-is-nan@1.0.1 </tspan>
<tspan x="10" y="506">  │   │ │ ├─┬ strip-ansi@3.0.1 </tspan>
<tspan x="10" y="522">  │   │ │ │ └── ansi-regex@2.1.1 </tspan>
<tspan x="10" y="538">  │   │ │ └── wide-align@1.1.0 </tspan>
<tspan x="10" y="554">  │   │ └── set-blocking@2.0.0 </tspan>
<tspan x="10" y="570">  │   ├── os-homedir@1.0.2 </tspan>
<tspan x="10" y="586">  │   ├─┬ pump@1.0.2 </tspan>
<tspan x="10" y="602">  │   │ └── end-of-stream@1.4.0 </tspan>
<tspan x="10" y="618">  │   ├─┬ rc@1.2.1 </tspan>
<tspan x="10" y="634">  │   │ ├── deep-extend@0.4.1 </tspan>
<tspan x="10" y="650">  │   │ ├── ini@1.3.4 </tspan>
<tspan x="10" y="666">  │   │ └── strip-json-comments@2.0.1 </tspan>
<tspan x="10" y="682">  │   ├─┬ simple-get@1.4.3 </tspan>
<tspan x="10" y="698">  │   │ └── unzip-response@1.0.2 </tspan>
<tspan x="10" y="714">  │   ├─┬ tar-fs@1.15.2 </tspan>
<tspan x="10" y="730">  │   │ ├── chownr@1.0.1 </tspan>
<tspan x="10" y="746">  │   │ └─┬ tar-stream@1.5.2 </tspan>
<tspan x="10" y="762">  │   │   └── bl@1.2.0 </tspan>
<tspan x="10" y="778">  │   └── tunnel-agent@0.4.3 </tspan>
<tspan x="10" y="794">  ├─┬ compact2string@1.4.0 </tspan>
<tspan x="10" y="810">  │ └── ipaddr.js@1.3.0 </tspan>
<tspan x="10" y="826">  ├─┬ debug@2.6.4 </tspan>
<tspan x="10" y="842">  │ └── ms@0.7.3 </tspan>
<tspan x="10" y="858">  ├── inherits@2.0.3 </tspan>
<tspan x="10" y="874">  ├── ip@1.1.5 </tspan>
<tspan x="10" y="890">  ├── lru@3.1.0 </tspan>
<tspan x="10" y="906">  ├── minimist@1.2.0 </tspan>
<tspan x="10" y="922">  ├─┬ once@1.4.0 </tspan>
<tspan x="10" y="938">  │ └── wrappy@1.0.2 </tspan>
<tspan x="10" y="954">  ├── random-iterate@1.0.1 </tspan>
<tspan x="10" y="970">  ├── randombytes@2.0.3 </tspan>
<tspan x="10" y="986">  ├── run-parallel@1.1.6 </tspan>
<tspan x="10" y="1002">  ├── run-series@1.1.4 </tspan>
<tspan x="10" y="1018">  ├── safe-buffer@5.0.1 </tspan>
<tspan x="10" y="1034">  ├─┬ simple-get@2.5.1 </tspan>
<tspan x="10" y="1050">  │ ├── simple-concat@1.0.0 </tspan>
<tspan x="10" y="1066">  │ └── unzip-response@2.0.1 </tspan>
<tspan x="10" y="1082">  ├─┬ simple-peer@8.1.0 </tspan>
<tspan x="10" y="1098">  │ ├── get-browser-rtc@1.0.2 </tspan>
<tspan x="10" y="1114">  │ └─┬ readable-stream@2.2.9 </tspan>
<tspan x="10" y="1130">  │   ├── buffer-shims@1.0.0 </tspan>
<tspan x="10" y="1146">  │   ├── core-util-is@1.0.2 </tspan>
<tspan x="10" y="1162">  │   ├── isarray@1.0.0 </tspan>
<tspan x="10" y="1178">  │   ├── process-nextick-args@1.0.7 </tspan>
<tspan x="10" y="1194">  │   ├── string_decoder@1.0.0 </tspan>
<tspan x="10" y="1210">  │   └── util-deprecate@1.0.2 </tspan>
<tspan x="10" y="1226">  ├── simple-websocket@5.0.2 </tspan>
<tspan x="10" y="1242">  ├─┬ string2compact@1.2.2 </tspan>
<tspan x="10" y="1258">  │ └── addr-to-ip-port@1.4.2 </tspan>
<tspan x="10" y="1274">  ├── uniq@1.0.1 </tspan>
<tspan x="10" y="1290">  ├── unordered-array-remove@1.0.2 </tspan>
<tspan x="10" y="1306">  ├─┬ ws@2.3.1 </tspan>
<tspan x="10" y="1322">  │ └── ultron@1.1.0 </tspan>
<tspan x="10" y="1338">  └── xtend@4.0.1</tspan>
</text>
</svg>
